<svg xmlns="http://www.w3.org/2000/svg" version="1.1" xmlns:xlink="http://www.w3.org/1999/xlink" xmlns:svgjs="http://svgjs.com/svgjs" width="1440" height="560" preserveAspectRatio="none" viewBox="0 0 1440 560"><g mask="url(&quot;#SvgjsMask1018&quot;)" fill="none"><rect width="1440" height="560" x="0" y="0" fill="#0e2a47"></rect><path d="M85.171,112.412C119.585,113.063,157.269,104.72,173.74,74.497C189.762,45.098,174.567,10.33,155.985,-17.523C139.787,-41.803,114.358,-58.305,85.171,-58.262C56.057,-58.22,30.416,-41.834,14.714,-17.317C-2.52,9.592,-13.026,43.169,2.225,71.25C18.014,100.321,52.095,111.786,85.171,112.412" fill="rgba(28, 83, 142, 0.4)" class="triangle-float1"></path><path d="M949.9379429010603 69.1311462332112L978.3033409097762 151.51024367972775 1060.6824383562928 123.14484567101188 1032.317040347577 40.76574822449531z" fill="rgba(28, 83, 142, 0.4)" class="triangle-float3"></path><path d="M1342.358552302105 373.4061519013298L1287.3993027538684 449.05106934218617 1363.0442201947246 504.0103188904228 1418.0034697429614 428.36540144956643z" fill="rgba(28, 83, 142, 0.4)" class="triangle-float2"></path><path d="M264.384,244.877C319.477,245.484,365.112,208.293,394.066,161.418C424.886,111.521,447.342,48.6,416.39,-1.215C386.441,-49.415,320.883,-52.592,264.384,-47.293C218.033,-42.946,178.997,-16.495,154.864,23.315C129.647,64.913,118.006,115.004,139.562,158.612C163.583,207.207,210.179,244.279,264.384,244.877" fill="rgba(28, 83, 142, 0.4)" class="triangle-float1"></path><path d="M1223.188,480.147C1270.651,480.886,1316.564,460.769,1342.017,420.701C1369.43,377.548,1377.708,321.912,1351.647,277.929C1325.995,234.636,1273.468,218.109,1223.188,220.155C1176.64,222.049,1134.762,247.248,1111.641,287.693C1088.696,327.83,1087.419,377.096,1110.603,417.096C1133.721,456.982,1177.093,479.429,1223.188,480.147" fill="rgba(28, 83, 142, 0.4)" class="triangle-float1"></path><path d="M-53.43 477.33 a172.34 172.34 0 1 0 344.68 0 a172.34 172.34 0 1 0 -344.68 0z" fill="rgba(28, 83, 142, 0.4)" class="triangle-float3"></path><path d="M503.5464945624145 526.5125809188764L569.6754278338478 540.5687196019586 557.6951692227544 434.34725035326755z" fill="rgba(28, 83, 142, 0.4)" class="triangle-float3"></path><path d="M963.3099693939164 10.226910120191057L890.5427004369981-73.48225716760186 806.8335331492051-0.7149882106835648 879.6008021061234 82.99417907710935z" fill="rgba(28, 83, 142, 0.4)" class="triangle-float2"></path><path d="M776.93 456.64 a154.85 154.85 0 1 0 309.7 0 a154.85 154.85 0 1 0 -309.7 0z" fill="rgba(28, 83, 142, 0.4)" class="triangle-float3"></path><path d="M26.111016274907985 514.1219649340322L104.21606239644413 577.3701841952119 167.46428165762376 499.2651380736757 89.3592355360876 436.0169188124961z" fill="rgba(28, 83, 142, 0.4)" class="triangle-float3"></path><path d="M-95.26 84.16 a176.45 176.45 0 1 0 352.9 0 a176.45 176.45 0 1 0 -352.9 0z" fill="rgba(28, 83, 142, 0.4)" class="triangle-float1"></path><path d="M1299.72 160.58 a100.02 100.02 0 1 0 200.04 0 a100.02 100.02 0 1 0 -200.04 0z" fill="rgba(28, 83, 142, 0.4)" class="triangle-float2"></path><path d="M629.966,80.88C656.815,81.996,683.585,68.924,696.17,45.181C708.132,22.614,700.738,-4.484,686.43,-25.641C673.897,-44.172,652.332,-53.179,629.966,-52.71C608.48,-52.26,588.754,-41.64,577.458,-23.357C565.518,-4.032,562.438,19.758,572.657,40.045C583.967,62.497,604.848,79.836,629.966,80.88" fill="rgba(28, 83, 142, 0.4)" class="triangle-float1"></path></g><defs><mask id="SvgjsMask1018"><rect width="1440" height="560" fill="#ffffff"></rect></mask><style>
            @keyframes float1 {
                0%{transform: translate(0, 0)}
                50%{transform: translate(-10px, 0)}
                100%{transform: translate(0, 0)}
            }

            .triangle-float1 {
                animation: float1 5s infinite;
            }

            @keyframes float2 {
                0%{transform: translate(0, 0)}
                50%{transform: translate(-5px, -5px)}
                100%{transform: translate(0, 0)}
            }

            .triangle-float2 {
                animation: float2 4s infinite;
            }

            @keyframes float3 {
                0%{transform: translate(0, 0)}
                50%{transform: translate(0, -10px)}
                100%{transform: translate(0, 0)}
            }

            .triangle-float3 {
                animation: float3 6s infinite;
            }
        </style></defs></svg>